<svg width="230" height="18" viewBox="0 0 230 18" fill="none" xmlns="http://www.w3.org/2000/svg">
<path d="M22.344 0.527997H25.896L19.872 17.448H16.872L12.96 6.24L8.99999 17.448H5.99999L-6.80983e-06 0.527997H3.79199L7.65599 12.216L11.76 0.527997H14.376L18.336 12.336L22.344 0.527997ZM35.1176 5.376C36.5256 5.376 37.5736 5.792 38.2616 6.624C38.9496 7.44 39.2936 8.68 39.2936 10.344V17.448H35.6696V10.512C35.6696 9.712 35.5176 9.128 35.2136 8.76C34.9256 8.392 34.4696 8.208 33.8456 8.208C33.0936 8.208 32.4856 8.448 32.0216 8.928C31.5736 9.408 31.3496 10.048 31.3496 10.848V17.448H27.7256V0.527997H31.3496V7.224C31.7656 6.616 32.2936 6.16 32.9336 5.856C33.5896 5.536 34.3176 5.376 35.1176 5.376ZM52.6071 12.24H44.9271C45.0391 13.184 45.3431 13.872 45.8391 14.304C46.3511 14.72 47.0711 14.928 47.9991 14.928C48.6071 14.928 49.2071 14.832 49.7991 14.64C50.4071 14.432 50.9591 14.144 51.4551 13.776L52.4151 16.2C51.8391 16.648 51.1351 17 50.3031 17.256C49.4871 17.512 48.6631 17.64 47.8311 17.64C45.8471 17.64 44.2791 17.096 43.1271 16.008C41.9911 14.904 41.4231 13.408 41.4231 11.52C41.4231 10.32 41.6711 9.256 42.1671 8.328C42.6631 7.4 43.3511 6.68 44.2311 6.168C45.1111 5.64 46.1111 5.376 47.2311 5.376C48.8791 5.376 50.1831 5.912 51.1431 6.984C52.1191 8.056 52.6071 9.512 52.6071 11.352V12.24ZM47.3271 7.872C46.6391 7.872 46.0871 8.096 45.6711 8.544C45.2711 8.976 45.0231 9.608 44.9271 10.44H49.5591C49.5111 9.592 49.2951 8.952 48.9111 8.52C48.5431 8.088 48.0151 7.872 47.3271 7.872ZM63.2199 8.352L61.1799 8.568C60.1719 8.664 59.4599 8.952 59.0439 9.432C58.6279 9.896 58.4199 10.52 58.4199 11.304V17.448H54.7959V5.664H58.2759V7.656C58.8679 6.296 60.0919 5.552 61.9479 5.424L63.0039 5.352L63.2199 8.352ZM74.8024 12.24H67.1224C67.2344 13.184 67.5384 13.872 68.0344 14.304C68.5464 14.72 69.2664 14.928 70.1944 14.928C70.8024 14.928 71.4024 14.832 71.9944 14.64C72.6024 14.432 73.1544 14.144 73.6504 13.776L74.6104 16.2C74.0344 16.648 73.3304 17 72.4984 17.256C71.6824 17.512 70.8584 17.64 70.0264 17.64C68.0424 17.64 66.4744 17.096 65.3224 16.008C64.1864 14.904 63.6184 13.408 63.6184 11.52C63.6184 10.32 63.8664 9.256 64.3624 8.328C64.8584 7.4 65.5464 6.68 66.4264 6.168C67.3064 5.64 68.3064 5.376 69.4264 5.376C71.0744 5.376 72.3784 5.912 73.3384 6.984C74.3144 8.056 74.8024 9.512 74.8024 11.352V12.24ZM69.5224 7.872C68.8344 7.872 68.2824 8.096 67.8664 8.544C67.4664 8.976 67.2184 9.608 67.1224 10.44H71.7544C71.7064 9.592 71.4904 8.952 71.1064 8.52C70.7384 8.088 70.2104 7.872 69.5224 7.872ZM83.6944 17.448V5.664H87.3184V17.448H83.6944ZM83.5744 -3.33786e-06H87.4624V3.384H83.5744V-3.33786e-06ZM97.4848 5.376C98.8928 5.376 99.9408 5.792 100.629 6.624C101.317 7.44 101.661 8.68 101.661 10.344V17.448H98.0368V10.512C98.0368 9.712 97.8848 9.128 97.5808 8.76C97.2928 8.392 96.8368 8.208 96.2128 8.208C95.4608 8.208 94.8528 8.448 94.3888 8.928C93.9408 9.408 93.7168 10.048 93.7168 10.848V17.448H90.0928V5.664H93.6208V7.344C94.0368 6.704 94.5728 6.216 95.2288 5.88C95.9008 5.544 96.6528 5.376 97.4848 5.376ZM117.597 14.976C117.965 14.976 118.349 14.952 118.749 14.904L118.557 17.544C118.093 17.608 117.629 17.64 117.165 17.64C115.373 17.64 114.061 17.248 113.229 16.464C112.413 15.68 112.005 14.488 112.005 12.888V8.376H109.773V5.664H112.005V2.208H115.629V5.664H118.581V8.376H115.629V12.864C115.629 14.272 116.285 14.976 117.597 14.976ZM127.743 5.376C129.151 5.376 130.199 5.792 130.887 6.624C131.575 7.44 131.919 8.68 131.919 10.344V17.448H128.295V10.512C128.295 9.712 128.143 9.128 127.839 8.76C127.551 8.392 127.095 8.208 126.471 8.208C125.719 8.208 125.111 8.448 124.647 8.928C124.199 9.408 123.975 10.048 123.975 10.848V17.448H120.351V0.527997H123.975V7.224C124.391 6.616 124.919 6.16 125.559 5.856C126.215 5.536 126.943 5.376 127.743 5.376ZM145.232 12.24H137.552C137.664 13.184 137.968 13.872 138.464 14.304C138.976 14.72 139.696 14.928 140.624 14.928C141.232 14.928 141.832 14.832 142.424 14.64C143.032 14.432 143.584 14.144 144.08 13.776L145.04 16.2C144.464 16.648 143.76 17 142.928 17.256C142.112 17.512 141.288 17.64 140.456 17.64C138.472 17.64 136.904 17.096 135.752 16.008C134.616 14.904 134.048 13.408 134.048 11.52C134.048 10.32 134.296 9.256 134.792 8.328C135.288 7.4 135.976 6.68 136.856 6.168C137.736 5.64 138.736 5.376 139.856 5.376C141.504 5.376 142.808 5.912 143.768 6.984C144.744 8.056 145.232 9.512 145.232 11.352V12.24ZM139.952 7.872C139.264 7.872 138.712 8.096 138.296 8.544C137.896 8.976 137.648 9.608 137.552 10.44H142.184C142.136 9.592 141.92 8.952 141.536 8.52C141.168 8.088 140.64 7.872 139.952 7.872ZM169.964 5.664H173.492L168.716 17.448H165.644L163.052 10.8L160.532 17.448H157.484L152.684 5.664H156.38L159.164 13.128L161.948 5.664H164.396L167.204 13.2L169.964 5.664ZM180.272 17.64C179.024 17.64 177.928 17.392 176.984 16.896C176.04 16.384 175.312 15.672 174.8 14.76C174.288 13.832 174.032 12.744 174.032 11.496C174.032 10.248 174.288 9.168 174.8 8.256C175.312 7.328 176.04 6.616 176.984 6.12C177.928 5.624 179.024 5.376 180.272 5.376C181.52 5.376 182.616 5.624 183.56 6.12C184.504 6.616 185.232 7.328 185.744 8.256C186.256 9.168 186.512 10.248 186.512 11.496C186.512 12.744 186.256 13.832 185.744 14.76C185.232 15.672 184.504 16.384 183.56 16.896C182.616 17.392 181.52 17.64 180.272 17.64ZM180.272 14.88C182.032 14.88 182.912 13.752 182.912 11.496C182.912 10.36 182.68 9.512 182.216 8.952C181.768 8.392 181.12 8.112 180.272 8.112C178.512 8.112 177.632 9.24 177.632 11.496C177.632 13.752 178.512 14.88 180.272 14.88ZM197.142 8.352L195.102 8.568C194.094 8.664 193.382 8.952 192.966 9.432C192.55 9.896 192.342 10.52 192.342 11.304V17.448H188.718V5.664H192.198V7.656C192.79 6.296 194.014 5.552 195.87 5.424L196.926 5.352L197.142 8.352ZM198.351 17.448V0.527997H201.975V17.448H198.351ZM216.677 0.527997V17.448H213.077V15.696C212.725 16.304 212.221 16.784 211.565 17.136C210.925 17.472 210.197 17.64 209.381 17.64C208.373 17.64 207.469 17.384 206.669 16.872C205.885 16.344 205.269 15.616 204.821 14.688C204.389 13.744 204.173 12.664 204.173 11.448C204.173 10.232 204.389 9.168 204.821 8.256C205.269 7.328 205.885 6.616 206.669 6.12C207.453 5.624 208.357 5.376 209.381 5.376C210.181 5.376 210.901 5.544 211.541 5.88C212.197 6.216 212.701 6.688 213.053 7.296V0.527997H216.677ZM210.437 14.88C211.285 14.88 211.933 14.592 212.381 14.016C212.845 13.424 213.077 12.584 213.077 11.496C213.077 10.408 212.845 9.576 212.381 9C211.933 8.424 211.285 8.136 210.437 8.136C209.589 8.136 208.933 8.424 208.469 9C208.005 9.56 207.773 10.376 207.773 11.448C207.773 12.536 208.005 13.384 208.469 13.992C208.933 14.584 209.589 14.88 210.437 14.88ZM222.444 10.896C222.444 10.064 222.596 9.376 222.9 8.832C223.204 8.272 223.628 7.68 224.172 7.056C224.588 6.576 224.892 6.168 225.084 5.832C225.292 5.496 225.396 5.128 225.396 4.728C225.396 4.248 225.236 3.88 224.916 3.624C224.596 3.368 224.14 3.24 223.548 3.24C222.908 3.24 222.212 3.384 221.46 3.672C220.708 3.96 219.972 4.36 219.252 4.872L218.052 2.208C218.708 1.632 219.564 1.176 220.62 0.839997C221.692 0.487997 222.764 0.311997 223.836 0.311997C224.86 0.311997 225.764 0.487997 226.548 0.839997C227.348 1.176 227.964 1.656 228.396 2.28C228.844 2.888 229.068 3.584 229.068 4.368C229.068 4.96 228.956 5.504 228.732 6C228.508 6.48 228.236 6.904 227.916 7.272C227.612 7.624 227.188 8.056 226.644 8.568C226.036 9.144 225.58 9.632 225.276 10.032C224.972 10.416 224.78 10.84 224.7 11.304L224.556 12.096H222.444V10.896ZM221.628 17.448V13.608H225.492V17.448H221.628Z" fill="white"/>
</svg>
