<svg width="233" height="18" viewBox="0 0 233 18" fill="none" xmlns="http://www.w3.org/2000/svg">
<path d="M6.024 17.448L-4.73857e-06 0.527997H3.816L7.704 12.096L11.808 0.527997H14.496L18.48 12.288L22.512 0.527997H26.112L20.04 17.448H17.016L13.056 6.216L9.048 17.448H6.024ZM27.8668 17.448V0.527997H31.4908V7.272C31.9068 6.664 32.4428 6.208 33.0988 5.904C33.7548 5.584 34.4828 5.424 35.2828 5.424C38.0508 5.424 39.4348 7.072 39.4348 10.368V17.448H35.8108V10.536C35.8108 9.72 35.6588 9.136 35.3548 8.784C35.0508 8.416 34.6028 8.232 34.0108 8.232C33.2428 8.232 32.6268 8.472 32.1628 8.952C31.7148 9.432 31.4908 10.072 31.4908 10.872V17.448H27.8668ZM48.2602 17.712C46.8682 17.712 45.6682 17.464 44.6602 16.968C43.6682 16.456 42.9002 15.744 42.3562 14.832C41.8282 13.904 41.5642 12.816 41.5642 11.568C41.5642 10.352 41.8202 9.288 42.3322 8.376C42.8602 7.448 43.5722 6.728 44.4682 6.216C45.3802 5.688 46.4282 5.424 47.6122 5.424C49.3242 5.424 50.6842 5.968 51.6922 7.056C52.7002 8.128 53.2042 9.584 53.2042 11.424V12.336H45.0202C45.1482 13.264 45.4842 13.944 46.0282 14.376C46.5882 14.792 47.3562 15 48.3322 15C48.9722 15 49.6202 14.904 50.2762 14.712C50.9322 14.52 51.5242 14.224 52.0522 13.824L53.0122 16.248C52.4202 16.696 51.6922 17.056 50.8282 17.328C49.9802 17.584 49.1242 17.712 48.2602 17.712ZM47.7562 7.824C46.9882 7.824 46.3642 8.056 45.8842 8.52C45.4202 8.984 45.1322 9.632 45.0202 10.464H50.2042C50.1082 8.704 49.2922 7.824 47.7562 7.824ZM55.3121 17.448V5.664H58.8641V7.704C59.4241 6.328 60.6241 5.568 62.4641 5.424L63.5201 5.352L63.7361 8.4L61.6961 8.616C59.9041 8.792 59.0081 9.704 59.0081 11.352V17.448H55.3121ZM71.1118 17.712C69.7198 17.712 68.5198 17.464 67.5118 16.968C66.5198 16.456 65.7518 15.744 65.2078 14.832C64.6798 13.904 64.4158 12.816 64.4158 11.568C64.4158 10.352 64.6718 9.288 65.1838 8.376C65.7118 7.448 66.4238 6.728 67.3198 6.216C68.2318 5.688 69.2798 5.424 70.4638 5.424C72.1758 5.424 73.5358 5.968 74.5438 7.056C75.5518 8.128 76.0558 9.584 76.0558 11.424V12.336H67.8718C67.9998 13.264 68.3358 13.944 68.8798 14.376C69.4398 14.792 70.2078 15 71.1838 15C71.8238 15 72.4718 14.904 73.1278 14.712C73.7838 14.52 74.3758 14.224 74.9038 13.824L75.8638 16.248C75.2718 16.696 74.5438 17.056 73.6798 17.328C72.8318 17.584 71.9758 17.712 71.1118 17.712ZM70.6078 7.824C69.8398 7.824 69.2158 8.056 68.7358 8.52C68.2718 8.984 67.9838 9.632 67.8718 10.464H73.0558C72.9598 8.704 72.1438 7.824 70.6078 7.824ZM84.6994 3.384V-3.33786e-06H88.6114V3.384H84.6994ZM84.8434 17.448V5.664H88.4674V17.448H84.8434ZM91.2652 17.448V5.664H94.8172V7.392C95.2172 6.752 95.7532 6.264 96.4252 5.928C97.0972 5.592 97.8492 5.424 98.6812 5.424C100.073 5.424 101.113 5.832 101.801 6.648C102.489 7.448 102.833 8.688 102.833 10.368V17.448H99.2092V10.536C99.2092 9.72 99.0572 9.136 98.7532 8.784C98.4492 8.416 98.0012 8.232 97.4092 8.232C96.6412 8.232 96.0252 8.472 95.5612 8.952C95.1132 9.432 94.8892 10.072 94.8892 10.872V17.448H91.2652ZM118.002 17.712C114.69 17.712 113.034 16.104 113.034 12.888V8.376H110.802V5.664H113.034V2.208H116.658V5.664H120.138V8.376H116.658V12.744C116.658 13.416 116.81 13.92 117.114 14.256C117.434 14.592 117.938 14.76 118.626 14.76C118.834 14.76 119.05 14.736 119.274 14.688C119.514 14.64 119.77 14.576 120.042 14.496L120.57 17.136C120.234 17.312 119.834 17.448 119.37 17.544C118.906 17.656 118.45 17.712 118.002 17.712ZM121.921 17.448V0.527997H125.545V7.272C125.961 6.664 126.497 6.208 127.153 5.904C127.809 5.584 128.537 5.424 129.337 5.424C132.105 5.424 133.489 7.072 133.489 10.368V17.448H129.865V10.536C129.865 9.72 129.713 9.136 129.409 8.784C129.105 8.416 128.657 8.232 128.065 8.232C127.297 8.232 126.681 8.472 126.217 8.952C125.769 9.432 125.545 10.072 125.545 10.872V17.448H121.921ZM142.315 17.712C140.923 17.712 139.723 17.464 138.715 16.968C137.723 16.456 136.955 15.744 136.411 14.832C135.883 13.904 135.619 12.816 135.619 11.568C135.619 10.352 135.875 9.288 136.387 8.376C136.915 7.448 137.627 6.728 138.523 6.216C139.435 5.688 140.483 5.424 141.667 5.424C143.379 5.424 144.739 5.968 145.747 7.056C146.755 8.128 147.259 9.584 147.259 11.424V12.336H139.075C139.203 13.264 139.539 13.944 140.083 14.376C140.643 14.792 141.411 15 142.387 15C143.027 15 143.675 14.904 144.331 14.712C144.987 14.52 145.579 14.224 146.107 13.824L147.067 16.248C146.475 16.696 145.747 17.056 144.883 17.328C144.035 17.584 143.179 17.712 142.315 17.712ZM141.811 7.824C141.043 7.824 140.419 8.056 139.939 8.52C139.475 8.984 139.187 9.632 139.075 10.464H144.259C144.163 8.704 143.347 7.824 141.811 7.824ZM159.382 17.448L154.582 5.664H158.254L161.062 13.224L163.87 5.664H166.27L169.078 13.32L171.886 5.664H175.366L170.614 17.448H167.542L164.95 10.752L162.43 17.448H159.382ZM182.101 17.712C180.837 17.712 179.733 17.464 178.789 16.968C177.861 16.456 177.141 15.744 176.629 14.832C176.117 13.904 175.861 12.808 175.861 11.544C175.861 10.296 176.117 9.216 176.629 8.304C177.141 7.376 177.861 6.664 178.789 6.168C179.733 5.672 180.837 5.424 182.101 5.424C183.365 5.424 184.461 5.672 185.389 6.168C186.333 6.664 187.061 7.376 187.573 8.304C188.101 9.216 188.365 10.296 188.365 11.544C188.365 12.808 188.101 13.904 187.573 14.832C187.061 15.744 186.333 16.456 185.389 16.968C184.461 17.464 183.365 17.712 182.101 17.712ZM182.101 15C182.869 15 183.493 14.72 183.973 14.16C184.469 13.6 184.717 12.728 184.717 11.544C184.717 10.376 184.469 9.52 183.973 8.976C183.493 8.416 182.869 8.136 182.101 8.136C181.333 8.136 180.709 8.416 180.229 8.976C179.749 9.52 179.509 10.376 179.509 11.544C179.509 12.728 179.749 13.6 180.229 14.16C180.709 14.72 181.333 15 182.101 15ZM190.57 17.448V5.664H194.122V7.704C194.682 6.328 195.882 5.568 197.722 5.424L198.778 5.352L198.994 8.4L196.954 8.616C195.162 8.792 194.266 9.704 194.266 11.352V17.448H190.57ZM204.853 17.712C203.333 17.712 202.221 17.32 201.517 16.536C200.813 15.736 200.461 14.552 200.461 12.984V0.527997H204.085V12.84C204.085 14.12 204.653 14.76 205.789 14.76C205.965 14.76 206.133 14.752 206.293 14.736C206.469 14.72 206.637 14.688 206.797 14.64L206.749 17.448C206.141 17.624 205.509 17.712 204.853 17.712ZM212.92 17.712C211.896 17.712 210.992 17.464 210.208 16.968C209.44 16.456 208.84 15.744 208.408 14.832C207.976 13.904 207.76 12.808 207.76 11.544C207.76 10.28 207.976 9.192 208.408 8.28C208.84 7.368 209.44 6.664 210.208 6.168C210.992 5.672 211.896 5.424 212.92 5.424C213.704 5.424 214.424 5.592 215.08 5.928C215.736 6.264 216.232 6.712 216.568 7.272V0.527997H220.192V17.448H216.64V15.672C216.32 16.296 215.824 16.792 215.152 17.16C214.496 17.528 213.752 17.712 212.92 17.712ZM214 15C214.768 15 215.392 14.72 215.872 14.16C216.368 13.6 216.616 12.728 216.616 11.544C216.616 10.376 216.368 9.52 215.872 8.976C215.392 8.416 214.768 8.136 214 8.136C213.232 8.136 212.608 8.416 212.128 8.976C211.648 9.52 211.408 10.376 211.408 11.544C211.408 12.728 211.648 13.6 212.128 14.16C212.608 14.72 213.232 15 214 15ZM226.008 12.096V10.968C226.008 10.264 226.136 9.616 226.392 9.024C226.648 8.416 227.088 7.776 227.712 7.104C228.16 6.624 228.472 6.216 228.648 5.88C228.824 5.528 228.912 5.168 228.912 4.8C228.912 4.352 228.744 4 228.408 3.744C228.088 3.488 227.624 3.36 227.016 3.36C225.528 3.36 224.128 3.896 222.816 4.968L221.64 2.232C222.344 1.624 223.2 1.144 224.208 0.791998C225.216 0.439998 226.24 0.263998 227.28 0.263998C228.336 0.263998 229.264 0.439998 230.064 0.791998C230.864 1.128 231.48 1.608 231.912 2.232C232.36 2.84 232.584 3.552 232.584 4.368C232.584 5.104 232.416 5.784 232.08 6.408C231.76 7.032 231.184 7.688 230.352 8.376C229.6 9 229.08 9.544 228.792 10.008C228.52 10.472 228.352 10.92 228.288 11.352L228.168 12.096H226.008ZM225.144 17.448V13.608H229.032V17.448H225.144Z" fill="#111517"/>
</svg>
